<svg width="300" height="54" viewBox="0 0 300 54" fill="none" xmlns="http://www.w3.org/2000/svg">
<path d="M21.0575 50.4184L6.43235 10.6006H6.16152C6.20666 11.519 6.27437 12.7216 6.36465 14.2085C6.45492 15.6516 6.52263 17.2259 6.56777 18.9315C6.61291 20.637 6.63548 22.3207 6.63548 23.9825V50.4184H0V3.58164H10.4272L24.3075 41.1691H24.5784L38.865 3.58164H49.2921V50.4184H42.1827V23.5889C42.1827 22.102 42.2053 20.5496 42.2504 18.9315C42.3407 17.2697 42.4084 15.7172 42.4535 14.2741C42.5438 12.8309 42.6115 11.6283 42.6567 10.6662H42.3858L27.3544 50.4184H21.0575Z" fill="black"/>
<path d="M106.436 33.8878C106.436 37.1239 105.737 40.0539 104.337 42.6778C102.938 45.258 100.817 47.3134 97.9728 48.844C95.1742 50.3309 91.6081 51.0743 87.2748 51.0743C81.1358 51.0743 76.4639 49.5 73.259 46.3513C70.0993 43.1589 68.5194 38.9606 68.5194 33.7566V3.58164H75.8319V33.4286C75.8319 41.1691 79.7591 45.0394 87.6133 45.0394C91.6759 45.0394 94.6099 43.9898 96.4155 41.8907C98.2662 39.7915 99.1916 36.949 99.1916 33.363V3.58164H106.436V33.8878Z" fill="black"/>
<path d="M153.445 37.758C153.445 41.9125 151.888 45.1706 148.774 47.5321C145.659 49.8936 141.393 51.0743 135.977 51.0743C133.358 51.0743 130.876 50.8557 128.529 50.4184C126.226 50.0248 124.263 49.4344 122.638 48.6472V41.9563C124.443 42.7434 126.565 43.465 129.003 44.121C131.44 44.7332 133.923 45.0394 136.451 45.0394C139.701 45.0394 142.138 44.4271 143.763 43.2026C145.388 41.9781 146.201 40.3382 146.201 38.2828C146.201 36.8397 145.817 35.637 145.05 34.6749C144.327 33.6691 143.176 32.7507 141.596 31.9198C140.017 31.0889 137.94 30.1706 135.367 29.1647C132.975 28.2901 130.853 27.2624 129.003 26.0816C127.197 24.9009 125.775 23.4359 124.737 21.6866C123.699 19.9373 123.18 17.7945 123.18 15.258C123.18 11.4096 124.624 8.39213 127.513 6.20554C130.402 4.01895 134.194 2.92566 138.888 2.92566C141.506 2.92566 143.921 3.18805 146.133 3.71283C148.39 4.19388 150.534 4.87172 152.565 5.74636L150.263 11.5846C148.412 10.8411 146.517 10.2289 144.576 9.74782C142.68 9.26677 140.716 9.02624 138.685 9.02624C136.022 9.02624 133.99 9.59476 132.591 10.7318C131.192 11.8688 130.492 13.3557 130.492 15.1924C130.492 16.6356 130.831 17.8601 131.508 18.8659C132.185 19.828 133.268 20.7026 134.758 21.4898C136.247 22.277 138.211 23.1516 140.648 24.1137C143.357 25.1633 145.659 26.2784 147.555 27.4592C149.496 28.5962 150.963 29.9956 151.956 31.6574C152.949 33.2755 153.445 35.309 153.445 37.758Z" fill="black"/>
<path d="M184.578 50.4184H165.823V46.3513L171.578 44.7114V9.35423L165.823 7.64869V3.58164H184.578V7.64869L178.891 9.35423V44.7114L184.578 46.3513V50.4184Z" fill="black"/>
<path d="M300 50.4184H291.13L266.687 12.5685H266.416C266.507 14.3178 266.619 16.3295 266.755 18.6035C266.89 20.8338 266.958 23.1297 266.958 25.4913V50.4184H260.323V3.58164H269.125L293.5 41.2347H293.703C293.658 40.3163 293.59 39.1574 293.5 37.758C293.455 36.3586 293.41 34.8717 293.365 33.2974C293.319 31.6793 293.274 30.1706 293.229 28.7711V3.58164H300V50.4184Z" fill="black"/>
<path d="M222.4 1.38929C213.907 1.38929 206.369 5.51803 201.688 11.8604C200.983 12.7482 200.366 13.7083 199.848 14.7296C197.843 18.3754 196.7 22.5577 196.7 27C196.7 41.1248 208.231 52.6107 222.4 52.6107C236.569 52.6107 248.1 41.1248 248.1 27C248.1 12.8752 236.569 1.38929 222.4 1.38929ZM219.552 32.4264C215.784 32.4264 212.706 29.33 212.706 25.5121C212.706 21.6943 215.784 18.5979 219.552 18.5979C223.32 18.5979 226.398 21.6943 226.398 25.5121C226.398 29.33 223.32 32.4264 219.552 32.4264ZM219.552 14.9656C213.765 14.9656 209.066 19.6999 209.066 25.5121C209.066 30.1449 212.051 34.0928 216.193 35.5044C215.727 35.5558 215.252 35.5822 214.772 35.5822C207.552 35.5822 201.666 29.6561 201.666 22.3615C201.666 20.2332 202.17 18.2235 203.06 16.4401C203.521 15.6062 204.036 14.8052 204.599 14.0393C207.007 11.0506 210.673 9.14088 214.772 9.14088C220.621 9.14088 225.593 13.0284 227.272 18.3815C225.355 16.2842 222.606 14.9656 219.552 14.9656ZM222.4 48.9784C211.866 48.9784 203.04 41.5826 200.862 31.7331C203.868 36.24 208.979 39.2151 214.772 39.2151C224.012 39.2151 231.519 31.6511 231.519 22.3621C231.519 13.8624 225.233 6.80712 217.086 5.66935C218.788 5.24653 220.567 5.02112 222.399 5.02112C234.565 5.02112 244.459 14.8837 244.459 26.9995C244.459 39.1153 234.565 48.9784 222.4 48.9784Z" fill="black" stroke="#1E1E1F" stroke-width="1.4"/>
</svg>
