<svg width="300" height="53" viewBox="0 0 300 53" fill="none" xmlns="http://www.w3.org/2000/svg">
<path d="M21.0575 49.9332L6.43235 10.1155H6.16152C6.20666 11.0338 6.27437 12.2365 6.36465 13.7233C6.45492 15.1665 6.52263 16.7408 6.56777 18.4464C6.61291 20.1519 6.63548 21.8356 6.63548 23.4974V49.9332H0V3.09651H10.4272L24.3075 40.684H24.5784L38.865 3.09651H49.2921V49.9332H42.1827V23.1038C42.1827 21.6169 42.2053 20.0644 42.2504 18.4464C42.3407 16.7846 42.4084 15.2321 42.4535 13.7889C42.5438 12.3458 42.6115 11.1432 42.6567 10.1811H42.3858L27.3544 49.9332H21.0575Z" fill="white"/>
<path d="M106.436 33.4026C106.436 36.6388 105.737 39.5688 104.337 42.1927C102.938 44.7729 100.817 46.8283 97.9728 48.3589C95.1742 49.8458 91.6081 50.5892 87.2748 50.5892C81.1358 50.5892 76.4639 49.0149 73.259 45.8662C70.0993 42.6738 68.5194 38.4755 68.5194 33.2714V3.09651H75.8319V32.9435C75.8319 40.684 79.7591 44.5542 87.6133 44.5542C91.6759 44.5542 94.6099 43.5047 96.4155 41.4056C98.2662 39.3064 99.1916 36.4639 99.1916 32.8779V3.09651H106.436V33.4026Z" fill="white"/>
<path d="M153.445 37.2729C153.445 41.4274 151.888 44.6854 148.774 47.047C145.659 49.4085 141.393 50.5892 135.977 50.5892C133.358 50.5892 130.876 50.3706 128.529 49.9332C126.226 49.5397 124.263 48.9493 122.638 48.1621V41.4711C124.443 42.2583 126.565 42.9799 129.003 43.6359C131.44 44.2481 133.923 44.5542 136.451 44.5542C139.701 44.5542 142.138 43.942 143.763 42.7175C145.388 41.493 146.201 39.8531 146.201 37.7977C146.201 36.3545 145.817 35.1519 145.05 34.1898C144.327 33.184 143.176 32.2656 141.596 31.4347C140.017 30.6038 137.94 29.6854 135.367 28.6796C132.975 27.805 130.853 26.7773 129.003 25.5965C127.197 24.4158 125.775 22.9507 124.737 21.2015C123.699 19.4522 123.18 17.3093 123.18 14.7729C123.18 10.9245 124.624 7.90701 127.513 5.72042C130.402 3.53383 134.194 2.44054 138.888 2.44054C141.506 2.44054 143.921 2.70293 146.133 3.22771C148.39 3.70876 150.534 4.3866 152.565 5.26124L150.263 11.0994C148.412 10.356 146.517 9.74374 144.576 9.2627C142.68 8.78165 140.716 8.54112 138.685 8.54112C136.022 8.54112 133.99 9.10963 132.591 10.2467C131.192 11.3837 130.492 12.8706 130.492 14.7073C130.492 16.1505 130.831 17.3749 131.508 18.3808C132.185 19.3429 133.268 20.2175 134.758 21.0047C136.247 21.7918 138.211 22.6665 140.648 23.6286C143.357 24.6781 145.659 25.7933 147.555 26.9741C149.496 28.1111 150.963 29.5105 151.956 31.1723C152.949 32.7904 153.445 34.8239 153.445 37.2729Z" fill="white"/>
<path d="M184.578 49.9332H165.823V45.8662L171.578 44.2262V8.86911L165.823 7.16357V3.09651H184.578V7.16357L178.891 8.86911V44.2262L184.578 45.8662V49.9332Z" fill="white"/>
<path d="M300 49.9332H291.13L266.687 12.0834H266.416C266.507 13.8327 266.619 15.8443 266.755 18.1184C266.89 20.3487 266.958 22.6446 266.958 25.0061V49.9332H260.323V3.09651H269.125L293.5 40.7496H293.703C293.658 39.8312 293.59 38.6723 293.5 37.2729C293.455 35.8735 293.41 34.3866 293.365 32.8123C293.319 31.1942 293.274 29.6854 293.229 28.286V3.09651H300V49.9332Z" fill="white"/>
<path d="M222.4 0.904172C213.907 0.904172 206.369 5.03291 201.688 11.3753C200.983 12.2631 200.366 13.2232 199.848 14.2444C197.843 17.8903 196.7 22.0726 196.7 26.5149C196.7 40.6397 208.231 52.1256 222.4 52.1256C236.569 52.1256 248.1 40.6397 248.1 26.5149C248.1 12.3901 236.569 0.904172 222.4 0.904172ZM219.552 31.9412C215.784 31.9412 212.706 28.8449 212.706 25.027C212.706 21.2092 215.784 18.1128 219.552 18.1128C223.32 18.1128 226.398 21.2092 226.398 25.027C226.398 28.8449 223.32 31.9412 219.552 31.9412ZM219.552 14.4804C213.765 14.4804 209.066 19.2148 209.066 25.027C209.066 29.6598 212.051 33.6077 216.193 35.0193C215.727 35.0706 215.252 35.0971 214.772 35.0971C207.552 35.0971 201.666 29.1709 201.666 21.8764C201.666 19.7481 202.17 17.7383 203.06 15.9549C203.521 15.121 204.036 14.3201 204.599 13.5542C207.007 10.5655 210.673 8.65575 214.772 8.65575C220.621 8.65575 225.593 12.5433 227.272 17.8963C225.355 15.7991 222.606 14.4804 219.552 14.4804ZM222.4 48.4933C211.866 48.4933 203.04 41.0975 200.862 31.248C203.868 35.7548 208.979 38.7299 214.772 38.7299C224.012 38.7299 231.519 31.166 231.519 21.8769C231.519 13.3773 225.233 6.322 217.086 5.18423C218.788 4.76141 220.567 4.53599 222.399 4.53599C234.565 4.53599 244.459 14.3986 244.459 26.5144C244.459 38.6302 234.565 48.4933 222.4 48.4933Z" fill="white" stroke="white" stroke-width="1.4"/>
</svg>
