<svg width="500" height="645" viewBox="0 0 102 131" fill="none" xmlns="http://www.w3.org/2000/svg">
<path d="M44.7118 127.064C48.1601 130.918 53.941 130.918 57.3893 126.963C57.6935 126.659 58.302 125.949 59.2148 124.935C60.7361 123.312 62.3588 121.385 64.0829 119.255C69.1539 113.271 74.2249 106.781 78.9916 100.188C83.7583 93.596 87.9165 87.1052 91.2634 81.02C97.5514 69.7624 101 60.0261 101 52.014C101.101 23.8194 78.6873 0.999969 50.9998 0.999969C23.3124 0.999969 1 23.8194 1 52.014C1 60.0261 4.44828 69.8638 10.7363 81.1214C14.1845 87.2066 18.3428 93.6974 23.008 100.29C27.7747 106.882 32.8458 113.373 37.9167 119.357C39.7423 121.486 41.365 123.413 42.7849 125.036C43.799 126.05 44.4076 126.76 44.7118 127.064ZM54.8764 77.8909C52.29 79.37 49.71 79.37 47.1234 77.8909L29.8765 68.0225C27.29 66.54 26 64.33 26 61.3684V41.6316C26 38.67 27.29 36.46 29.8765 34.9774L47.1234 25.109C49.71 23.63 52.29 23.63 54.8764 25.109L72.1234 34.9774C74.71 36.46 76 38.67 76 41.6316V61.3684C76 64.3442 74.71 66.54 72.1234 68.0225L54.8764 77.8909Z" fill="#FF4081"/>
<path d="M66 38.0371V64H61.0127C61.0508 54.7275 60.1751 53.5036 59.8706 53.0585C59.4518 52.5021 58.9569 52.2054 58.3858 52.1683C57.0914 52.0941 55.9112 53.3552 54.5406 54.8017C53.4365 55.9886 52.1802 57.3609 51.2284 57.398C49.934 57.4351 48.4873 55.9144 47.1929 54.5792C45.7081 53.0585 44.3376 51.612 42.8909 52.2054C41.2157 52.873 40.9873 56.4337 41.1396 62.776C41.1396 63.2211 41.1396 63.6291 41.1396 63.9629H36V38H40.7208C41.6726 40.077 42.6624 42.0799 43.9188 43.9715C45.1371 45.7518 46.9645 48.4594 49.6294 49.0528C50.0482 49.1641 50.467 49.2011 50.8858 49.2011C52.599 49.2011 54.2741 48.4593 55.5685 47.087C56.6345 45.9372 57.3579 44.5649 58.0812 43.2668C58.9949 41.5606 59.6802 39.7803 60.2893 38.0371L66 38.0371Z" fill="#FF4081"/>
<path d="M54.8764 77.8909C52.29 79.37 49.71 79.37 47.1234 77.8909M54.8764 77.8909L72.1234 68.0225M54.8764 77.8909C52.2921 79.3697 49.7078 79.3697 47.1234 77.8909M47.1234 77.8909L29.8765 68.0225M29.8765 68.0225C27.29 66.54 26 64.33 26 61.3684M29.8765 68.0225C27.2922 66.5439 26 64.3259 26 61.3684M26 61.3684V41.6316M26 41.6316C26 38.67 27.29 36.46 29.8765 34.9774M26 41.6316C26 38.6742 27.2922 36.4561 29.8765 34.9774M29.8765 34.9774L47.1234 25.109M47.1234 25.109C49.71 23.63 52.29 23.63 54.8764 25.109M47.1234 25.109C49.7078 23.6303 52.2921 23.6303 54.8764 25.109M54.8764 25.109L72.1234 34.9774C74.71 36.46 76 38.67 76 41.6316V61.3684M76 61.3684C76 64.3442 74.71 66.54 72.1234 68.0225M76 61.3684C76 64.3259 74.7078 66.5439 72.1234 68.0225M44.7118 127.064C48.1601 130.918 53.941 130.918 57.3893 126.963C57.6935 126.659 58.302 125.949 59.2148 124.935C60.7361 123.312 62.3588 121.385 64.0829 119.255C69.1539 113.271 74.2249 106.781 78.9916 100.188C83.7583 93.596 87.9166 87.1052 91.2634 81.02C97.5514 69.7624 101 60.0261 101 52.014C101.101 23.8194 78.6873 0.999969 50.9998 0.999969C23.3124 0.999969 1 23.8194 1 52.014C1 60.0261 4.44828 69.8638 10.7363 81.1214C14.1845 87.2066 18.3428 93.6974 23.008 100.29C27.7747 106.882 32.8458 113.373 37.9167 119.357C39.7423 121.486 41.365 123.413 42.7849 125.036C43.799 126.05 44.4076 126.76 44.7118 127.064ZM66 38.0371V64H61.0127C61.0508 54.7275 60.1751 53.5036 59.8706 53.0585C59.4518 52.5021 58.9569 52.2054 58.3858 52.1683C57.0914 52.0941 55.9112 53.3552 54.5406 54.8017C53.4365 55.9886 52.1802 57.3609 51.2284 57.398C49.934 57.4351 48.4873 55.9144 47.1929 54.5792C45.7081 53.0585 44.3376 51.612 42.8909 52.2054C41.2157 52.873 40.9873 56.4337 41.1396 62.776C41.1396 63.2211 41.1396 63.6291 41.1396 63.9629H36V38H40.7208C41.6726 40.077 42.6624 42.0799 43.9188 43.9715C45.1371 45.7518 46.9645 48.4593 49.6294 49.0528C50.0482 49.1641 50.467 49.2011 50.8858 49.2011C52.599 49.2011 54.2741 48.4593 55.5685 47.087C56.6345 45.9372 57.3579 44.5649 58.0812 43.2668C58.9949 41.5606 59.6802 39.7803 60.2893 38.0371L66 38.0371Z" stroke="#1A1A1A" stroke-width="0.2"/>
</svg>
