<svg width="300" height="54" viewBox="0 0 300 54" fill="none" xmlns="http://www.w3.org/2000/svg">
<path d="M21.0575 50.4477L6.43235 10.6299H6.16152C6.20666 11.5483 6.27437 12.7509 6.36465 14.2378C6.45492 15.6809 6.52263 17.2552 6.56777 18.9608C6.61291 20.6663 6.63548 22.35 6.63548 24.0118V50.4477H0V3.61093H10.4272L24.3075 41.1984H24.5784L38.865 3.61093H49.2921V50.4477H42.1827V23.6182C42.1827 22.1313 42.2053 20.5789 42.2504 18.9608C42.3407 17.299 42.4084 15.7465 42.4535 14.3034C42.5438 12.8602 42.6115 11.6576 42.6567 10.6955H42.3858L27.3544 50.4477H21.0575Z" fill="#25A5EC"/>
<path d="M106.436 33.9171C106.436 37.1532 105.737 40.0832 104.337 42.7071C102.938 45.2873 100.817 47.3427 97.9728 48.8733C95.1742 50.3602 91.6081 51.1036 87.2748 51.1036C81.1358 51.1036 76.4639 49.5293 73.259 46.3806C70.0993 43.1882 68.5194 38.9899 68.5194 33.7859V3.61093H75.8319V33.4579C75.8319 41.1984 79.7591 45.0687 87.6133 45.0687C91.6759 45.0687 94.6099 44.0191 96.4155 41.92C98.2662 39.8208 99.1916 36.9783 99.1916 33.3923V3.61093H106.436V33.9171Z" fill="#25A5EC"/>
<path d="M153.445 37.7873C153.445 41.9418 151.888 45.1999 148.774 47.5614C145.659 49.9229 141.393 51.1036 135.977 51.1036C133.358 51.1036 130.876 50.885 128.529 50.4477C126.226 50.0541 124.263 49.4637 122.638 48.6765V41.9856C124.443 42.7727 126.565 43.4943 129.003 44.1503C131.44 44.7625 133.923 45.0687 136.451 45.0687C139.701 45.0687 142.138 44.4564 143.763 43.2319C145.388 42.0074 146.201 40.3675 146.201 38.3121C146.201 36.869 145.817 35.6663 145.05 34.7042C144.327 33.6984 143.176 32.78 141.596 31.9491C140.017 31.1182 137.94 30.1999 135.367 29.194C132.975 28.3194 130.853 27.2917 129.003 26.1109C127.197 24.9302 125.775 23.4652 124.737 21.7159C123.699 19.9666 123.18 17.8238 123.18 15.2873C123.18 11.4389 124.624 8.42143 127.513 6.23484C130.402 4.04825 134.194 2.95496 138.888 2.95496C141.506 2.95496 143.921 3.21735 146.133 3.74213C148.39 4.22318 150.534 4.90102 152.565 5.77565L150.263 11.6139C148.412 10.8704 146.517 10.2582 144.576 9.77712C142.68 9.29606 140.716 9.05554 138.685 9.05554C136.022 9.05554 133.99 9.62405 132.591 10.7611C131.192 11.8981 130.492 13.385 130.492 15.2217C130.492 16.6649 130.831 17.8894 131.508 18.8952C132.185 19.8573 133.268 20.7319 134.758 21.5191C136.247 22.3063 138.211 23.1809 140.648 24.143C143.357 25.1926 145.659 26.3077 147.555 27.4885C149.496 28.6255 150.963 30.0249 151.956 31.6867C152.949 33.3048 153.445 35.3383 153.445 37.7873Z" fill="#25A5EC"/>
<path d="M184.578 50.4477H165.823V46.3806L171.578 44.7407V9.38353L165.823 7.67799V3.61093H184.578V7.67799L178.891 9.38353V44.7407L184.578 46.3806V50.4477Z" fill="#25A5EC"/>
<path d="M300 50.4477H291.13L266.687 12.5978H266.416C266.507 14.3471 266.619 16.3587 266.755 18.6328C266.89 20.8631 266.958 23.159 266.958 25.5206V50.4477H260.323V3.61093H269.125L293.5 41.264H293.703C293.658 40.3456 293.59 39.1867 293.5 37.7873C293.455 36.3879 293.41 34.901 293.365 33.3267C293.319 31.7086 293.274 30.1999 293.229 28.8004V3.61093H300V50.4477Z" fill="#25A5EC"/>
<path d="M222.4 1.41859C213.907 1.41859 206.369 5.54733 201.688 11.8897C200.983 12.7775 200.366 13.7376 199.848 14.7589C197.843 18.4047 196.7 22.587 196.7 27.0293C196.7 41.1541 208.231 52.64 222.4 52.64C236.569 52.64 248.1 41.1541 248.1 27.0293C248.1 12.9045 236.569 1.41859 222.4 1.41859ZM219.552 32.4557C215.784 32.4557 212.706 29.3593 212.706 25.5414C212.706 21.7236 215.784 18.6272 219.552 18.6272C223.32 18.6272 226.398 21.7236 226.398 25.5414C226.398 29.3593 223.32 32.4557 219.552 32.4557ZM219.552 14.9948C213.765 14.9948 209.066 19.7292 209.066 25.5414C209.066 30.1742 212.051 34.1221 216.193 35.5337C215.727 35.5851 215.252 35.6115 214.772 35.6115C207.552 35.6115 201.666 29.6854 201.666 22.3908C201.666 20.2625 202.17 18.2528 203.06 16.4694C203.521 15.6355 204.036 14.8345 204.599 14.0686C207.007 11.0799 210.673 9.17017 214.772 9.17017C220.621 9.17017 225.593 13.0577 227.272 18.4108C225.355 16.3135 222.606 14.9948 219.552 14.9948ZM222.4 49.0077C211.866 49.0077 203.04 41.6119 200.862 31.7624C203.868 36.2693 208.979 39.2444 214.772 39.2444C224.012 39.2444 231.519 31.6804 231.519 22.3914C231.519 13.8917 225.233 6.83642 217.086 5.69865C218.788 5.27583 220.567 5.05041 222.399 5.05041C234.565 5.05041 244.459 14.913 244.459 27.0288C244.459 39.1446 234.565 49.0077 222.4 49.0077Z" fill="#25A5EC" stroke="#25A5EC" stroke-width="1.4"/>
</svg>
